<?xml version="1.0" encoding="utf-8"?>
<!-- Generator: Adobe Illustrator 19.1.0, SVG Export Plug-In . SVG Version: 6.00 Build 0)  -->
<svg version="1.1" id="Layer_1" xmlns="http://www.w3.org/2000/svg" xmlns:xlink="http://www.w3.org/1999/xlink" x="0px" y="0px"
	 viewBox="0 0 119.8 146.2" enable-background="new 0 0 119.8 146.2" xml:space="preserve">
<g>
	<path d="M53.4,33.2c-3.3-1.8-17.3-1.5-9.5,21c1.8,5-21,14.1-24.4,4.8C4.6,17.6,54.6-0.5,63.6,31.8
		C63.6,31.8,54.7,33.9,53.4,33.2z"/>
	<path d="M28.2,132.5c-12.5-7.1-42.4-28.4-16.1-74.6c3.4-5.9,0.5,16.8,24.6,7c10-4.1-23,18.2-6.5,54.3
		C30.2,119.2,34.9,136.3,28.2,132.5z"/>
	<path d="M49.7,38.3c9.6-3.8,22.6,13.4,24.1,18.1c0.5,1.5-5.9,16.1-13.8,7.8c-7.1-7.6-9.8-8.1-10.2-8.7
		C47.8,52.5,42.7,41,49.7,38.3z"/>
	<path d="M36.4,137.1c7.1-14-22.4-35.5,11.3-75.2c3.1-3.6,10.4,10.6,17.1,10c7.8-0.6,12.8-5.1,15-13.6
		c0.8-3,11.7,5.1,18.1,13.5c11.6,15.3,30.6,65.6,17.3,68.8C55.7,154.9,36.4,137.1,36.4,137.1z"/>
	<path d="M57.3,35.5c2.7,1.4,9.3,5.7,11.7,9.4c0.6,1,7-1.2,7-1.2l-1-10.9L57.3,35.5z"/>
	<path d="M41.1,7c2.6,2.2,6.8,4.4,6.8,4.4c-11.1-4.7-24.5,7-31.8,15.4c-5.1,5.8-6.7,19.6-5.5,27L5.1,64.6
		c0.3-3.4-0.8-24.3,1.8-34.1C10.2,18.3,4.1,9.4,0,7c0,0,2.8,0.4,5-0.1c2.4-0.6,3.8-2.3,3.8-2.3c2.3,30.3,14.7,9.7,29.9-4.6
		C38.7,0,39.3,5.5,41.1,7z"/>
</g>
</svg>
